<?xml version="1.0" encoding="UTF-8" standalone="no"?>
<!-- Created with Inkscape (http://www.inkscape.org/) -->

<svg
   width="136.51915mm"
   height="44.526981mm"
   viewBox="0 0 136.51915 44.526982"
   version="1.1"
   id="svg1"
   xml:space="preserve"
   xmlns="http://www.w3.org/2000/svg"
   xmlns:svg="http://www.w3.org/2000/svg"><defs
     id="defs1" /><g
     id="layer1"
     transform="matrix(0.7034646,0,0,0.7034646,-5.6452186,-1.4961868)"><text
       xml:space="preserve"
       style="font-size:50.8px;text-align:start;writing-mode:lr-tb;direction:ltr;text-anchor:start;fill:#000000;stroke-width:0.264583"
       x="7.110497"
       y="57.573299"
       id="text1"><tspan
         id="tspan1"
         style="font-style:normal;font-variant:normal;font-weight:800;font-stretch:normal;font-size:50.8px;font-family:Raleway;-inkscape-font-specification:'Raleway Ultra-Bold';stroke-width:0.264583"
         x="7.110497"
         y="57.573299"><tspan
   style="fill:#ffa300;fill-opacity:1"
   id="tspan2">SAN</tspan>FI</tspan></text><g
       style="fill:#000000"
       id="g3"
       transform="matrix(2.1029404,0,0,2.1029404,129.97353,-1.3235349)" /><g
       style="fill:#ffffff;fill-opacity:1"
       id="g25"
       transform="matrix(0.0334021,0,0,0.0334021,164.74159,42.646087)"><path
         d="m 497.00624,395.7 -117.1,-117.1 c -23.1,-23.1 -57.6,-27.6 -85.4,-13.9 l -106.6,-106.6 V 96 L 59.906235,0 -4.0937645,64 91.906235,192 h 62.100005 l 106.6,106.6 c -13.6,27.8 -9.2,62.3 13.9,85.4 l 117.1,117.1 c 14.6,14.6 38.2,14.6 52.7,0 l 52.7,-52.7 c 14.5,-14.6 14.5,-38.2 0,-52.7 z m -169.4,-170.7 c 28.3,0 54.9,11 74.9,31 l 19.4,19.4 c 15.8,-6.9 30.8,-16.5 43.8,-29.5 37.1,-37.1 49.7,-89.3 37.9,-136.7 -2.2,-9 -13.5,-12.1 -20.1,-5.5 l -74.4,74.4 -67.9,-11.3 -11.3,-67.9 74.4,-74.4 c 6.6,-6.6 3.4,-17.9 -5.7,-20.2 -47.4,-11.7 -99.6,0.9 -136.6,37.9 -28.5,28.5 -41.9,66.1 -41.2,103.6 l 82.1,82.1 c 8.1,-1.9 16.5,-2.9 24.7,-2.9 z m -103.9,82 -56.7,-56.7 -152.400005,152.5 c -25,25 -25,65.5 0,90.5 25,25 65.5,25 90.500005,0 l 123.6,-123.6 c -7.6,-19.9 -9.9,-41.6 -5,-62.7 z M 59.906235,472 c -13.2,0 -24,-10.8 -24,-24 0,-13.3 10.7,-24 24,-24 13.3,0 24,10.7 24,24 0,13.2 -10.7,24 -24,24 z"
         id="path1-5"
         style="fill:#ffffff;fill-opacity:1" /></g></g><g
     id="layer1-4"
     transform="matrix(0.25584187,0,0,0.25584187,91.297002,-13.995217)"><path
       d="m 114.29173,138.65355 c -1.52601,4.71617 -6.20864,8.13232 -11.77861,8.13232 h -0.63355 c -5.569953,0 -10.252594,-3.41616 -11.77861,-8.13232 H 51.052181 c -0.203317,0 -0.399109,-0.0312 -0.58291,-0.0889 v 49.54581 c 0,22.51062 18.122033,40.63318 40.632662,40.63318 h 21.008017 c 22.51063,0 40.63318,-18.12256 40.63318,-40.63318 v -49.45693 z m 7.09931,18.52962 c 1.71592,0 2.02262,1.32964 2.02262,1.32964 l -8.39587,8.31008 -0.15297,5.59036 1.68517,1.72237 4.41214,0.0305 0.67437,-0.18138 7.92717,-7.40678 0.36277,-0.31523 0.62838,-0.25115 c 0,0 0.53116,0.12311 0.56896,0.13901 0.0379,0.016 0.2651,0.19741 0.2651,0.19741 l 0.0527,0.50487 v 5.80223 l -0.42892,2.90112 -0.67386,2.41742 -1.10329,2.2965 -1.59318,1.99471 -1.71618,1.51102 -2.69647,1.63194 -2.0836,0.78549 h -1.16427 l -0.73535,-0.24185 -2.32906,-2.05465 -1.16427,-0.96739 -1.47071,-0.66456 -1.71566,-0.24184 -1.34824,0.0605 -5.76088,-5.92264 -0.73536,-1.26917 -0.67386,-1.57148 -0.42892,-1.20871 -0.12298,-1.14825 v -2.65927 l 0.67437,-2.4784 1.22577,-2.23604 1.59318,-1.9942 2.0836,-1.6924 1.83864,-1.14825 2.81895,-1.02784 2.69648,-0.48318 c 0,0 3.24759,-0.0605 4.96352,-0.0605 z m -38.301538,1.32964 8.579838,6.22494 1.715658,7.25279 13.482382,12.93357 -4.29018,4.77439 -14.033251,-13.59814 -6.189803,-1.0883 -6.925158,-9.0656 z m 28.926918,26.71516 c 0.66973,0.0442 1.44048,0.33794 2.26653,1.09916 2.64333,2.43596 14.56035,14.01775 14.56035,14.01775 0,0 2.33969,2.26472 0.0863,4.61522 -2.25333,2.35048 -6.23993,6.23941 -6.23993,6.23941 0,0 -3.51,2.17955 -6.28334,-0.85473 -2.77334,-3.03427 -13.21676,-14.06012 -13.21676,-14.06012 0,0 -1.42994,-2.13691 0.34675,-4.01733 l 6.0234,-6.02547 c 0,0 0.98328,-1.11108 2.4567,-1.01389 z m -18.815391,0.17983 6.741191,6.58772 -0.33693,0.72502 -0.214457,0.90692 0.03049,1.11776 0.275952,0.90692 -14.646651,15.01872 -0.980819,0.51367 -1.53169,0.24184 -1.900142,-0.0909 -1.5012,-0.36225 -1.716175,-1.14877 -1.562695,-1.60145 -1.010791,-1.51102 -0.306441,-2.17558 0.183968,-2.50837 0.980302,-1.96422 2.880444,-2.32699 z"
       style="stroke-width:0.321963"
       id="path61" /><path
       d="m 132.47408,54.702604 -3.38377,0.19327 -2.70733,0.57981 -3.09438,0.966866 -1.8371,0.773596 -2.51354,1.353922 -2.32079,1.547193 -2.41742,1.837097 -2.32027,2.416907 -1.5472,1.740462 -1.64382,2.514058 -1.74047,2.610694 -1.3534,3.384289 -0.7736,2.706812 -0.2899,2.514058 -0.0315,0.890385 c 0.0145,0.09598 0.0222,0.193871 0.0222,0.294039 v 1.244369 h 5.76915 c 0.12515,-1.026232 0.23461,-1.945101 0.23461,-1.945101 v -0.676962 l 0.19327,-1.740462 0.48369,-1.450041 1.45056,-2.80448 2.127,-3.480407 3.09387,-3.480925 3.48093,-2.707328 3.67419,-1.837097 3.19102,-1.160653 2.80396,-0.483175 2.6107,0.09663 2.127,-0.09663 2.51406,0.38654 2.41742,0.483692 1.8371,0.870231 1.54667,0.773596 1.35393,1.160136 1.25677,1.063501 1.0635,1.547192 0.87023,1.740462 1.0635,2.416907 1.06402,2.99775 0.87023,2.997233 1.16014,2.997233 0.96686,1.740462 1.35341,2.030884 1.74046,1.933732 1.74046,1.450041 2.03037,1.353922 2.61069,1.353406 2.41743,0.676961 3.38428,0.966867 3.19051,0.289904 2.12752,0.09663 1.45004,-0.773079 0.87023,-1.160653 0.0966,-1.353406 -0.48317,-1.450557 -1.45056,-0.773596 -1.3534,-0.09663 -2.6107,-0.289905 -2.99723,-0.676961 -2.61069,-0.966866 -2.6107,-1.547193 -1.8371,-1.739945 -1.16065,-1.547193 -1.25677,-2.127518 -1.0635,-2.127002 -0.87023,-2.900598 -1.25677,-4.737696 -1.06402,-2.030883 -2.03037,-3.287138 -3.48092,-3.57756 -3.48093,-2.030367 -3.4804,-1.063501 -2.6107,-0.580326 -3.19102,-0.289905 z"
       style="stroke-width:0.219"
       id="path60" /><path
       d="m 110.29094,82.270431 h -5.76915 v 0.402559 l 2.9099,4.130497 c 0,0 2.41736,-1.256959 2.51405,-1.837097 0.0507,-0.304133 0.20731,-1.565158 0.3452,-2.695959 z"
       style="stroke-width:0.219"
       id="path59" /><path
       d="m 110.29094,82.270431 c -0.13789,1.130801 -0.2945,2.391826 -0.3452,2.695959 -0.0967,0.580138 -2.51405,1.837097 -2.51405,1.837097 l -2.9099,-4.130497 v 18.55959 c 5.85402,0.88876 10.29446,5.60158 10.29446,11.31714 v 20.08818 h 2.26653 1.97662 2.24069 3.14451 3.75688 2.45256 2.46187 c 1.08241,-1e-5 2.16493,-5e-4 3.24734,-5.2e-4 1.26661,-4e-5 2.53316,2.1e-4 3.79977,0 1.27711,0 2.55418,-0.001 3.83129,-0.002 1.51526,-0.001 3.03075,-0.003 4.54598,-0.0114 1.4011,-0.009 2.80199,-0.0207 4.20284,-0.046 v -9.67486 c 0,-22.51063 -18.12255,-40.632659 -40.63318,-40.632659 z"
       style="stroke-width:0.321963"
       id="path58" /><path
       d="m 99.300399,82.270947 h -8.198466 c -22.510629,0 -40.632662,18.122033 -40.632662,40.632663 v 9.73377 h 1.584399 3.194121 c 1.027515,1e-5 2.054984,-1e-5 3.082499,0 0.964676,1e-5 1.929721,-8e-5 2.894397,0 1.014736,9e-5 2.029522,-3e-5 3.044258,5.2e-4 0.907807,0.001 1.815547,0.001 2.723348,0.005 0.65554,0.003 1.311295,0.007 1.966805,0.0155 h 20.617346 v -20.10885 c 0,-5.52927 4.155575,-10.11987 9.726539,-11.21792 -0.0016,-0.0322 -0.0026,-0.0646 -0.0026,-0.0971 z"
       style="stroke-width:0.321963"
       id="path57" /><rect
       style="fill:#000000;fill-opacity:1;stroke-width:0.219;stroke-dasharray:none"
       id="rect64"
       width="5.9311118"
       height="5.1106701"
       x="104.52089"
       y="82.095474"
       ry="0" /><rect
       style="fill:#ff8b01;fill-opacity:1;stroke-width:0.240329;stroke-dasharray:none"
       id="rect65"
       width="16.40884"
       height="36.646408"
       x="93.803864"
       y="105.56354"
       ry="8.1519566" /></g></svg>
